<svg viewBox="-232.1161048689138 -102 786.9225967540574 200" xmlns="http://www.w3.org/2000/svg" xmlns:xlink="http://www.w3.org/1999/xlink" version="1.1" class="jsx-2263963463 artboard-inner" style="width: 328px; height: 83.3627px; max-height: 100%;"><g transform="translate(0 49.87515605493134) scale(1.7339436815092244)" fill="#FFFFFF"><g id="line1"><path d="M57.600-57.600L44.640-57.600L44.640-17.352L28.800-33.480L12.888-17.352L12.888-57.600L0-57.600L0 0L12.888 0L28.800-14.976L44.640 0L57.600 0Z"></path><path d="M113.472 0L113.472-57.600L64.440-57.600L64.440 0ZM77.328-12.888L77.328-44.712L100.584-44.712L100.584-12.888Z"></path><path d="M119.952-57.600L119.952 0L132.840 0L132.840-16.848L144.864-16.848L150.048 0L163.584 0L158.400-16.848L165.960-16.848L165.960-57.600ZM132.840-29.664L132.840-44.712L153.072-44.712L153.072-29.664Z"></path><path d="M222.984 0.072L222.984-12.816L211.248-57.528L172.440-57.528L172.440-44.640L178.416-44.640L178.632 0.072ZM209.592-12.816L190.656-12.816L190.656-44.640L201.168-44.640Z"></path><path d="M227.376 0L269.064 0L269.064-12.888L240.264-12.888L240.264-57.600L227.376-57.600Z"></path><path d="M316.872 0L316.872-12.816L284.616-12.816L284.616-21.672L313.992-21.672L319.968-57.528L271.728-57.528L271.728 0ZM284.616-44.640L304.272-44.640L302.616-34.560L284.616-34.560Z"></path></g></g><g transform="translate(-238.78277153558045 -108.66666666666667) scale(3.3333333333333335)" id="logomark"><g fill="#FFFFFF"><path d="M56 3a1 1 0 0 0-1-1H9a7.008 7.008 0 0 0-7 7v48a5.006 5.006 0 0 0 5 5h48a1 1 0 0 0 1-1V37h4v-6h-4v-2h6v-6h-6v-2h4v-6h-4v-2h6V7h-6zM4 43.487V42a1.882 1.882 0 0 1 2-2v-2a4.08 4.08 0 0 0-2 .487V16a1.882 1.882 0 0 1 2-2v-2a4.08 4.08 0 0 0-2 .487V9a5.009 5.009 0 0 1 4-4.9V52H7a4.948 4.948 0 0 0-3 1.026V47a1.882 1.882 0 0 1 2-2v-2a4.08 4.08 0 0 0-2 .487zM20 60H7a3 3 0 0 1 0-6h4v2H6v2h5v1a1 1 0 0 0 1.447.9L16 58.118l3.553 1.782A1 1 0 0 0 21 59v-1h33v2zm34-6v2H21v-2zm-41 0h6v3.382l-2.553-1.277a1 1 0 0 0-.894 0L13 57.382zm45-21v2h-2v-2zm2-8v2h-4v-2zm-2-8v2h-2v-2zm-4 35H10V4h44zm6-43v2h-4V9z"></path><path d="M26 12h-4a1 1 0 0 0-.965.737l-3 11 1.93.526L21.127 20h5.746l1.162 4.263 1.93-.526-3-11A1 1 0 0 0 26 12zm-4.327 6l1.091-4h2.472l1.091 4zM31 17h5v2h-5zM45.819 13.573A1 1 0 0 0 45 12h-8v2h6.08l-5.9 8.427A1 1 0 0 0 38 24h8v-2h-6.08z"></path><path d="M14 28h36V8H14zm2-18h32v16H16zM19 36h26v-6H19zm2-4h22v2H21zM17 39h4v2h-4zM23 39h18v2H23zM43 39h4v2h-4zM15 43h34v2H15zM15 47h34v2H15z"></path></g></g></svg>